# AST/ASF file generated using VICON BodyLanguage
# -----------------------------------------------
:version 1.10
:name VICON
:units
  mass 1.0
  length 0.45
  angle deg
:documentation
   .ast/.asf automatically generated from VICON data using
   VICON BodyBuilder and BodyLanguage model FoxedUp or BRILLIANT.MOD
:root
   order TX TY TZ RX RY RZ
   axis XYZ
   position 0 0 0  
   orientation 0 0 0 
:bonedata
  begin
     id 1 
     name lhipjoint
     direction 0.693937 -0.600361 0.397515 
     length 2.37164 
     axis 0 0 0  XYZ
  end
  begin
     id 2 
     name lfemur
     direction 0.34202 -0.939693 0  
     length 6.18497  
     axis 0 0 20  XYZ
    dof rx ry rz
    limits (-160.0 20.0)
           (-70.0 70.0)
           (-60.0 70.0)
  end
  begin
     id 3 
     name ltibia
     direction 0.34202 -0.939693 0   
     length 6.91601   
     axis 0 0 20   XYZ
    dof rx
    limits (-10.0 170.0)
  end
  begin
     id 4 
     name lfoot
     direction 0.0978718 -0.2689 0.958182   
     length 1.81453   
     axis -90 7.62852e-016 20   XYZ
    dof rx rz
    limits (-45.0 90.0)
           (-70.0 20.0)
  end
  begin
     id 5 
     name ltoes
     direction 1.53569e-011 -4.21951e-011 1   
     length 0.912052   
     axis -90 7.62852e-016 20   XYZ
    dof rx
    limits (-90.0 20.0)
  end
  begin
     id 6 
     name rhipjoint
     direction -0.643996 -0.637876 0.422354   
     length 2.23216  
     axis 0 0 0  XYZ 
  end
  begin
     id 7 
     name rfemur
     direction -0.34202 -0.939693 0   
     length 6.15404   
     axis 0 0 -20   XYZ
    dof rx ry rz
    limits (-160.0 20.0)
           (-70.0 70.0)
           (-70.0 60.0)
  end
  begin
     id 8 
     name rtibia
     direction -0.34202 -0.939693 0   
     length 6.86744   
     axis 0 0 -20   XYZ
    dof rx
    limits (-10.0 170.0)
 end
 begin
     id 9 
     name rfoot
     direction -0.118701 -0.326127 0.937844   
     length 1.9243  
     axis -90 -7.62852e-016 -20   XYZ
    dof rx rz
    limits (-45.0 90.0)
           (-20.0 70.0)
  end
  begin
     id 10 
     name rtoes
     direction -1.5356e-011 -4.2181e-011 1   
     length 0.958865   
     axis -90 -7.62852e-016 -20   XYZ
    dof rx
    limits (-90.0 20.0)
  end
  begin
     id 11 
     name lowerback
     direction 0.0310826 0.968686 -0.246334   
     length 2.00021   
     axis 0 0 0   XYZ
    dof rx ry rz
    limits (-20.0 45.0)
           (-30.0 30.0)
           (-30.0 30.0)
  end
  begin
     id 12 
     name upperback
     direction -0.0152834 0.999474 -0.0286152   
     length 2.03728   
     axis 0 0 0   XYZ
    dof rx ry rz
    limits (-20.0 45.0)
           (-30.0 30.0)
           (-30.0 30.0)
  end
  begin
     id 13 
     name thorax
     direction -0.0323701 0.996236 0.0804149   
     length 2.16   
     axis 0 0 0   XYZ
    dof rx ry rz
    limits (-20.0 45.0)
           (-30.0 30.0)
           (-30.0 30.0)
  end
  begin
     id 14 
     name lowerneck
     direction 0.0307935 0.982251 0.185027   
     length 1.43558   
     axis 0 0 0   XYZ
    dof rx ry rz
    limits (-20.0 45.0)
           (-30.0 30.0)
           (-30.0 30.0)
  end
  begin
     id 15 
     name upperneck
     direction -0.0927153 0.994775 0.0427454   
     length 1.44603   
     axis 0 0 0   XYZ
    dof rx ry rz
    limits (-20.0 45.0)
           (-30.0 30.0)
           (-30.0 30.0)
  end
  begin
     id 16
     name head
     direction -0.0341265 0.999406 -0.00472033  
     length 1.45931  
     axis 0 0 0   XYZ
    dof rx ry rz
    limits (-20.0 45.0)
           (-30.0 30.0)
           (-30.0 30.0)
  end
  begin
     id 17 
     name lclavicle
     direction 0.820755 0.555306 -0.134151  
     length 2.66075  
     axis 0 0 0   XYZ
    dof ry rz
    limits (-20.0 10.0)
           (0.0 20.0)
  end
  begin
     id 18 
     name lhumerus
     direction 1 -4.48971e-011 5.24853e-027   
     length 5.0546   
     axis -180 -30 -90   XYZ
    dof rx ry rz
    limits (-60.0 90.0)
           (-90.0 90.0)
           (-90.0 90.0)
  end
  begin
     id 19
     name lradius
     direction 1 -4.48971e-011 2.76575e-028   
     length 3.39013   
     axis -180 -30 -90   XYZ
    dof rx
    limits (-10.0 170.0)
  end
  begin
     id 20
     name lwrist
     direction 1 -4.48939e-011 -2.27826e-027   
     length 1.69507   
     axis 2.17013e-015 90 90   XYZ
    dof ry
    limits (-180.0 0.0)
 end
  begin
     id 21 
     name lhand
     direction 1 -4.49009e-011 -4.55652e-027   
     length 0.572425   
     axis 2.90745e-015 90 90   XYZ
    dof rx rz
    limits (-90.0 90.0)
           (-45.0 45.0)
  end
  begin
     id 22 
     name lfingers
     direction 1 -4.48955e-011 -9.11303e-027   
     length 0.461504   
     axis 5.81489e-015 90 90   XYZ
    dof rx
    limits (0.0 90.0)
  end
  begin
     id 23
     name lthumb
     direction 0.707107 -6.34929e-011 0.707107   
     length 0.66263   
     axis -90 45 2.85299e-015   XYZ
    dof rx rz
    limits (-45.0 45.0)
           (-45.0 45.0)
  end
  begin
     id 24 
     name rclavicle
     direction -0.754477 0.632921 -0.173712   
     length 2.73081  
     axis 0 0 0   XYZ 
    dof ry rz
    limits (-10.0 20.0)
           (-20.0 0.0)
  end
  begin
     id 25 
     name rhumerus
     direction -1 -4.48969e-011 5.1496e-027  
     length 5.0701   
     axis -180 30 90   XYZ
    dof rx ry rz
    limits (-90.0 60.0)
           (-90.0 90.0)
           (-90.0 90.0)
  end
  begin
     id 26 
     name rradius
     direction -1 -4.48967e-011 -7.15624e-028   
     length 3.14957   
     axis -180 30 90   XYZ
    dof rx
    limits (-10.0 170.0)
  end
  begin
     id 27 
     name rwrist
     direction -1 -4.48938e-011 -2.27826e-027   
     length 1.57479   
     axis 2.17013e-015 -90 -90   XYZ
    dof ry
    limits (-180.0 0.0)
  end
  begin
     id 28
     name rhand
     direction -1 -4.49008e-011 -4.55652e-027   
     length 0.718191   
     axis 2.90745e-015 -90 -90   XYZ
    dof rx rz
    limits (-90.0 90.0)
           (-45.0 45.0)
  end
  begin
     id 29
     name rfingers
     direction -1 -4.48953e-011 -9.11303e-027   
     length 0.579024   
     axis 5.81489e-015 -90 -90   XYZ
    dof rx
    limits (0.0 90.0)
  end
  begin
     id 30
     name rthumb
     direction -0.707107 -6.34937e-011 0.707107   
     length 0.831366   
     axis -90 -45 -2.85299e-015   XYZ
    dof rx rz
    limits (-45.0 45.0)
           (-45.0 45.0)
  end
:hierarchy
  begin
    root lhipjoint rhipjoint lowerback
    lhipjoint lfemur
    lfemur ltibia
    ltibia lfoot
    lfoot ltoes
    rhipjoint rfemur
    rfemur rtibia
    rtibia rfoot
    rfoot rtoes
    lowerback upperback
    upperback thorax
    thorax lowerneck lclavicle rclavicle
    lowerneck upperneck
    upperneck head
    lclavicle lhumerus
    lhumerus lradius
    lradius lwrist
    lwrist lhand lthumb
    lhand lfingers
    rclavicle rhumerus
    rhumerus rradius
    rradius rwrist
    rwrist rhand rthumb
    rhand rfingers
  end

#!OML:ASF H:\Male1\Project 1\Capture day 1\Session 1\Male1.ASF
:FULLY-SPECIFIED
:DEGREES
31
root -25.8202 15.0089 -2.61039 -2.38728 -0.933093 1.80436
lowerback 4.69866 1.83649 -0.0927759
upperback 5.56647 2.4885 -1.88835
thorax 3.18668 1.28352 -1.93802
lowerneck -7.5201 4.35954 5.63756
upperneck 40.8201 4.13196 3.25588
head 15.8174 3.05503 1.02828
rclavicle 1.63003e-014 -1.03368e-014
rhumerus -35.6173 2.19606 -86.5968
rradius 35.5525
rwrist -19.714
rhand -18.9095 1.12834
rfingers 7.12502
rthumb 7.39249 -28.7225
lclavicle 1.63003e-014 -1.03368e-014
lhumerus -36.7033 -3.18851 84.3269
lradius 37.9409
lwrist 5.37003
lhand -18.0499 13.4747
lfingers 7.12502
lthumb 8.22219 43.2948
rfemur -5.63114 14.5038 24.0688
rtibia 30.9498
rfoot -35.7673 -26.9998
rtoes -7.40379
lfemur -9.48025 -20.5735 -23.3532
ltibia 31.5535
lfoot -21.2228 21.5128
ltoes -12.1774
32
root -25.8218 15.0083 -2.61278 -2.39274 -0.943996 1.69464
lowerback 4.55698 1.89154 0.08804
upperback 5.69999 2.57007 -1.87405
thorax 3.4159 1.33232 -2.01813
lowerneck -7.60692 4.32983 5.67126
upperneck 40.7104 4.07478 3.25533
head 15.7816 3.03533 1.01215
rclavicle 1.87355e-014 -1.86858e-014
rhumerus -35.4619 1.92293 -86.5613
rradius 35.5718
rwrist -19.5189
rhand -18.9048 1.12088
rfingers 7.12502
rthumb 7.39707 -28.7298
lclavicle 1.87355e-014 -1.86858e-014
lhumerus -36.0984 -3.46612 84.4628
lradius 37.3655
lwrist 4.95192
lhand -19.5775 13.8839
lfingers 7.12502
lthumb 6.74765 43.7564
rfemur -5.59208 14.5513 24.2113
rtibia 30.8739
rfoot -35.6651 -27.0735
rtoes -7.60021
lfemur -9.52017 -20.6545 -23.2246
ltibia 31.6293
lfoot -21.3935 21.4714
ltoes -11.6334
33
root -25.8244 15.0078 -2.61713 -2.40971 -0.968655 1.60258
lowerback 4.32291 1.96386 0.307044
upperback 5.94168 2.67848 -1.89892
thorax 3.81627 1.39908 -2.15434
lowerneck -7.81826 4.31199 5.73242
upperneck 40.5357 4.00341 3.29538
head 15.7421 3.01769 1.00796
rclavicle -1.49585e-014 1.55052e-014
rhumerus -35.0442 1.6016 -86.5643
rradius 35.4474
rwrist -19.3059
rhand -18.7582 1.11738
rfingers 7.12502
rthumb 7.5385 -28.7283
lclavicle -1.49585e-014 1.55052e-014
lhumerus -35.1893 -3.72079 84.5222
lradius 36.6768
lwrist 4.3799
lhand -19.4752 14.0116
lfingers 7.12502
lthumb 6.84641 43.8809
rfemur -5.54293 14.7009 24.3591
rtibia 30.7946
rfoot -35.6631 -27.1731
rtoes -7.4813
lfemur -9.56012 -20.7237 -23.1143
ltibia 31.7018
lfoot -21.4587 21.5166
ltoes -11.4358
34
root -25.8276 15.0081 -2.62272 -2.41132 -0.973518 1.47714
lowerback 4.26891 1.9923 0.49216
upperback 6.02906 2.72087 -1.87787
thorax 3.94815 1.42878 -2.23266
lowerneck -7.88717 4.32832 5.70213
upperneck 40.4853 3.99303 3.39536
head 15.7284 3.02148 1.055
rclavicle 1.79403e-014 1.39149e-014
rhumerus -34.8601 1.68155 -86.6575
rradius 35.339
rwrist -19.3525
rhand -18.9884 1.06854
rfingers 7.12502
rthumb 7.31631 -28.785
lclavicle 1.79403e-014 1.39149e-014
lhumerus -34.5255 -4.14319 84.6932
lradius 35.974
lwrist 4.18579
lhand -19.5824 12.4717
lfingers 7.12502
lthumb 6.74292 42.3444
rfemur -5.52946 14.8557 24.5489
rtibia 30.7391
rfoot -35.705 -27.3115
rtoes -7.31728
lfemur -9.61862 -20.7191 -22.945
ltibia 31.7488
lfoot -21.4109 21.5473
ltoes -11.5034
35
root -25.8275 15.0079 -2.62065 -2.40761 -0.815204 1.50358
lowerback 4.21154 1.9088 0.467894
upperback 6.04717 2.60949 -1.86233
thorax 3.99229 1.37202 -2.20011
lowerneck -7.86936 4.37117 5.64122
upperneck 40.5036 4.06025 3.42781
head 15.7305 3.04467 1.08977
rclavicle 8.89561e-015 7.95139e-016
rhumerus -34.8299 1.85186 -86.7299
rradius 35.2938
rwrist -19.3751
rhand -19.0642 0.912264
rfingers 7.12502
rthumb 7.24319 -28.9438
lclavicle 8.89561e-015 7.95139e-016
lhumerus -34.2259 -4.05028 84.7533
lradius 35.6471
lwrist 3.81229
lhand -20.0756 9.81421
lfingers 7.12502
lthumb 6.2668 39.7015
rfemur -5.48225 14.6661 24.4973
rtibia 30.6815
rfoot -35.7061 -27.2482
rtoes -7.25203
lfemur -9.64647 -20.7917 -22.9812
ltibia 31.7936
lfoot -21.4004 21.4751
ltoes -11.5573
36
root -25.8289 15.0085 -2.62307 -2.3746 -0.70155 1.5512
lowerback 4.1964 1.81817 0.368494
upperback 6.04805 2.48653 -1.84015
thorax 3.99053 1.30569 -2.12057
lowerneck -7.81493 4.40468 5.52975
upperneck 40.4737 4.13375 3.44326
head 15.6962 3.05968 1.12347
rclavicle 1.23246e-014 -7.55382e-015
rhumerus -34.7414 1.80647 -86.7278
rradius 35.2184
rwrist -19.1675
rhand -18.5516 0.830203
rfingers 7.12502
rthumb 7.73791 -29.0082
lclavicle 1.23246e-014 -7.55382e-015
lhumerus -33.8926 -3.84089 84.7509
lradius 35.3282
lwrist 3.75087
lhand -19.7184 9.28924
lfingers 7.12502
lthumb 6.61165 39.166
rfemur -5.51248 14.6122 24.436
rtibia 30.661
rfoot -35.7287 -27.2706
rtoes -7.18292
lfemur -9.71326 -20.8726 -23.0096
ltibia 31.8019
lfoot -21.3516 21.453
ltoes -11.7823
37
root -25.8314 15.0106 -2.62862 -2.31926 -0.687834 1.37702
lowerback 4.21476 1.77358 0.492533
upperback 6.01701 2.42561 -1.75631
thorax 3.94643 1.27782 -2.10412
lowerneck -7.86712 4.46166 5.58846
upperneck 40.5513 4.23274 3.35829
head 15.7553 3.09934 1.09677
rclavicle -1.07344e-014 2.10712e-014
rhumerus -34.6977 1.81622 -86.7284
rradius 35.1496
rwrist -19.0999
rhand -18.3492 0.910798
rfingers 7.12502
rthumb 7.93333 -28.9203
lclavicle -1.07344e-014 2.10712e-014
lhumerus -33.5501 -3.56445 84.7449
lradius 34.9733
lwrist 3.77966
lhand -18.7775 10.7189
lfingers 7.12502
lthumb 7.51996 40.5652
rfemur -5.59581 14.7415 24.6424
rtibia 30.6661
rfoot -35.7713 -27.3788
rtoes -7.09966
lfemur -9.81474 -20.8131 -22.7594
ltibia 31.7875
lfoot -21.2672 21.4132
ltoes -12.1109
38
root -25.8356 15.0109 -2.63279 -2.36841 -0.688613 1.52988
lowerback 4.30596 1.77793 0.289692
upperback 6.03356 2.42833 -1.7751
thorax 3.9046 1.2711 -2.01293
lowerneck -7.87178 4.45975 5.64462
upperneck 40.5489 4.25247 3.26265
head 15.7607 3.10348 1.04895
rclavicle -6.5102e-015 -1.23246e-014
rhumerus -34.6752 1.83475 -86.7427
rradius 35.1428
rwrist -19.1687
rhand -18.6592 1.00432
rfingers 7.12502
rthumb 7.6341 -28.8379
lclavicle -6.5102e-015 -1.23246e-014
lhumerus -33.3301 -3.6889 84.9295
lradius 35.0104
lwrist 3.79122
lhand -18.9143 11.9411
lfingers 7.12502
lthumb 7.38788 41.7921
rfemur -5.57806 14.8727 24.522
rtibia 30.7005
rfoot -35.8552 -27.4098
rtoes -6.88628
lfemur -9.77197 -20.6743 -22.8986
ltibia 31.7424
lfoot -21.2012 21.3135
ltoes -12.2078
39
root -25.835 15.0104 -2.6277 -2.38379 -0.645296 1.65706
lowerback 4.21934 1.77284 0.218005
upperback 6.08187 2.42366 -1.82305
thorax 4.00296 1.26768 -2.01871
lowerneck -7.85593 4.41934 5.6693
upperneck 40.491 4.2195 3.17774
head 15.7294 3.08164 1.00021
rclavicle 4.03533e-014 -2.70347e-014
rhumerus -34.6208 1.67815 -86.7343
rradius 35.1395
rwrist -19.084
rhand -18.815 1.00588
rfingers 7.12502
rthumb 7.48373 -28.8417
lclavicle 4.03533e-014 -2.70347e-014
lhumerus -33.2304 -4.18507 85.269
lradius 35.4116
lwrist 4.03839
lhand -20.2726 13.6228
lfingers 7.12502
lthumb 6.07662 43.5156
rfemur -5.54308 14.7469 24.3647
rtibia 30.7201
rfoot -35.8566 -27.3101
rtoes -6.85333
lfemur -9.69704 -20.6548 -23.0671
ltibia 31.7078
lfoot -21.1795 21.3103
ltoes -12.2549
40
root -25.837 15.0127 -2.6282 -2.37045 -0.642807 1.68217
lowerback 4.21142 1.77154 0.232042
upperback 6.09576 2.42311 -1.8446
thorax 4.02366 1.26874 -2.04837
lowerneck -7.90104 4.42615 5.70084
upperneck 40.5014 4.23518 3.13539
head 15.7485 3.08735 0.980832
rclavicle 1.21756e-014 1.39149e-014
rhumerus -34.5733 1.61956 -86.7525
rradius 35.1609
rwrist -19.0594
rhand -18.5337 0.960515
rfingers 7.12502
rthumb 7.75525 -28.8773
lclavicle 1.21756e-014 1.39149e-014
lhumerus -33.1073 -4.61294 85.5106
lradius 35.7648
lwrist 4.44971
lhand -21.0689 15.8608
lfingers 7.12502
lthumb 5.30786 45.7744
rfemur -5.57304 14.8208 24.3503
rtibia 30.7657
rfoot -35.9277 -27.3021
rtoes -6.69518
lfemur -9.67886 -20.6417 -23.0776
ltibia 31.6471
lfoot -21.1282 21.3353
ltoes -12.3465
